<?xml version="1.0" encoding="utf-8"?>
<!-- Svg Vector Icons : http://www.sfont.cn -->
<!DOCTYPE svg PUBLIC "-//W3C//DTD SVG 1.1//EN" "http://www.w3.org/Graphics/SVG/1.1/DTD/svg11.dtd">
<svg version="1.1" xmlns="http://www.w3.org/2000/svg" xmlns:xlink="http://www.w3.org/1999/xlink" x="0px" y="0px" viewBox="0 0 1000 1000" enable-background="new 0 0 1000 1000" xml:space="preserve">
<metadata> Svg Vector Icons : http://www.sfont.cn </metadata>
<g><path d="M554.4,10.2L244.8,10c-12.8,0-71.1-0.2-71.1,70.1l0,828.3c0,44.9,38.2,81.7,85,81.7h482.6c46.7,0,85-36.7,85-81.7l0-826.6c0-71.8-78.6-71.8-89.6-71.8L554.4,10.2z M445.6,64.7h108.8c9.4,0,13.6,18.1,13.6,27.2c0,9-4.2,27.2-13.6,27.2H445.6c-9.4,0-13.5-18.2-13.5-27.2C432.1,66.4,445.6,64.7,445.6,64.7z M500,935.2c-30.1,0-54.4-24.2-54.4-54c0-29.9,24.3-54,54.4-54c30.1,0,54.4,24.1,54.4,54c0,29.9-26.2,54.4-54.4,54.4 M765.7,785.9H235V173.5h530.7V785.9z"/></g>
</svg>