<?xml version="1.0" encoding="utf-8"?>
<!-- Svg Vector Icons : http://www.sfont.cn -->
<!DOCTYPE svg PUBLIC "-//W3C//DTD SVG 1.1//EN" "http://www.w3.org/Graphics/SVG/1.1/DTD/svg11.dtd">
<svg version="1.1" xmlns="http://www.w3.org/2000/svg" xmlns:xlink="http://www.w3.org/1999/xlink" x="0px" y="0px" viewBox="0 0 1000 1000" enable-background="new 0 0 1000 1000" xml:space="preserve">
<metadata> Svg Vector Icons : http://www.sfont.cn </metadata>
<g><path d="M605.9,504.7c4.2,0,9.1-1.3,14.6-4.2c5.6-2.8,10.6-7.5,15.3-13.9c4.6-6.4,8.6-13.7,11.8-21.9c3.2-8.1,5.6-16,6.9-23.9c1.4-7.8,1.6-14.5,0.7-20.1c-1.9-6.5-5.3-11.8-10.4-16c-2.3-1.9-5.1-3.7-8.3-5.5c-13.8-5.1-25-13.6-33.7-25.4c-8.5-11.8-12.7-25.5-12.7-41.3c0-16.2,5-30.7,15.2-43.3c10.2-12.7,22.4-21.6,36.8-26.7c3.7-1.4,7.3-4.3,10.8-8.7c3.5-4.4,4.7-10.5,3.8-18.4c-1.8-13.4-5.5-26.7-10.8-39.9c-5.3-13.2-11.4-23-18.3-29.5c-3.7-3.7-8.3-5.8-13.6-6.3c-5.3-0.5-9.8,0.5-13.5,2.8c-13.9,6.5-28.9,9.2-45.1,8c-16.2-1.2-29.8-7.3-40.9-18.4c-11.1-11.1-17.8-24-20.1-38.9c-2.3-14.8-0.4-28.9,5.6-42.3c0.9-1.9,1.8-4.9,2.8-9.4c0.9-4.4,0.2-8.4-2.1-12.2c-3.7-6-8.6-11.5-14.9-16.6c-6.3-5.1-13.1-9.2-20.5-12.5c-7.4-3.2-14.9-5.8-22.5-7.6C435,11,427.9,10,421.5,10c-4.2,0-8.3,2-12.1,5.9c-4,3.9-6.8,7.8-8.8,11.4c-5,13.9-13.8,25.3-26.3,34.3c-12.5,9-26.8,13.5-43,13.5c-15.8,0-29.4-4.7-41-14.2c-11.6-9.5-19.9-20.4-25-32.9c-1.4-4.2-3.9-8.2-7.3-12.1c-3.4-3.9-8.2-5.9-14.2-5.9c-4.6,0-10.9,0.8-18.8,2.4c-7.9,1.6-15.9,4-24.2,7.3c-8.3,3.2-16.1,7.3-23.3,12.2c-7.2,4.8-12.1,10.5-14.9,17c-1.4,2.8-1.8,6-1.1,9.7c0.7,3.7,1.5,6.9,2.5,9.7c0.4,2.8,1,7.4,1.7,13.9c0.7,6.5,0.7,13.7,0,21.5c-0.7,7.9-2.3,15.9-4.9,23.9c-2.5,8.1-6.6,14.9-12.1,20.5c-11.6,11.1-24.9,17.7-39.9,19.8c-14.9,2.1-29.4,0.3-43.3-5.2c-4.2-1.4-8-2.3-11.5-2.8c-3.5-0.5-7.1,0.5-10.8,2.8c-4.6,2.8-8.9,7.1-12.9,12.8c-3.9,5.8-7.4,12.2-10.3,19.1c-3.1,6.9-5.5,14.1-7.3,21.5c-1.9,7.4-2.8,14.1-2.8,20.1c0,5.5,1.3,11,4.2,16.3c2.8,5.4,6.2,8.7,10.4,10.1c13.9,5.6,26.4,14.4,37.5,26.3c11.1,12.1,16.6,26.1,16.6,42.4c0,15.7-5.5,29.9-16.6,42.6c-11.1,12.8-23.6,21.9-37.5,27.4c-7.9,2.8-12.5,9.2-13.9,19.4c-0.9,5.5-0.5,12.6,1.4,21.1c1.8,8.6,4.4,16.9,8,25c3.5,8.1,7.4,15.5,11.8,22.2c4.4,6.7,9.1,11,14.2,12.8c6.5,2.8,13,3.3,19.5,1.5c10.1-3.3,20.1-5.1,29.8-5.6c8.3-0.4,17.1,0.4,26.4,2.5c9.2,2.1,17.1,6.6,23.6,13.6c10.7,11.5,16.6,24.1,17.7,37.8c1.2,13.6-0.8,25.7-5.9,36.4c-3.7,7.9-5.5,14-5.2,18.3c0.2,4.4,1.5,8.3,3.8,11.5c3.2,4.6,8.1,9.2,14.6,13.9c6.5,4.6,13.8,8.6,21.8,12.1c8.1,3.5,16.2,6.4,24.3,8.7c8.1,2.3,15.4,3.5,21.8,3.5c5.6,0,10.6-1.3,15.3-3.8c4.6-2.5,8.1-6.6,10.4-12.2c5.1-13.8,14-26,26.7-36.4c12.7-10.4,27-15.6,42.7-15.6c16.1,0,30.4,5.2,42.6,15.6c12.3,10.4,20.9,22.8,26,37.1h0.7c1.4,3.7,4,7.2,7.6,10.4c3.7,3.3,7.7,4.9,11.8,4.9c6,0,13-0.9,20.8-2.8c7.9-1.8,15.4-4.4,22.6-7.7c7.2-3.3,13.8-6.8,19.8-10.8c6-3.9,10.4-7.7,13.2-11.4c6-9.2,6.7-18.5,2.1-27.8c-6-13.4-8.1-27.5-6.2-42.3c1.8-14.8,8.3-28,19.5-39.5c5-5.6,11.2-9.5,18.3-11.9c7.2-2.3,14.4-3.8,21.5-4.4c7.1-0.7,14.2-0.4,21.2,0.7c6.9,1.2,12.7,2.4,17.3,3.8C597.2,503.8,601.8,504.7,605.9,504.7z M472,390.6c-7.9,18.2-18.6,34.3-32.3,48.2c-13.6,13.8-29.7,24.8-48.2,32.6c-18.5,7.9-38.1,11.8-59,11.8c-20.8,0-40.3-3.9-58.6-11.8c-18.3-7.8-34.2-18.7-47.8-32.6c-13.7-13.9-24.4-30-32.3-48.2c-7.8-18.3-11.8-37.8-11.8-58.6c0-20.8,4-40.4,11.8-58.6c7.9-18.3,18.7-34.2,32.3-47.9c13.6-13.6,29.6-24.4,47.8-32.2c18.3-7.9,37.8-11.8,58.6-11.8c20.8,0,40.5,3.9,59,11.8c18.5,7.8,34.6,18.6,48.2,32.2c13.6,13.6,24.4,29.6,32.3,47.9c7.9,18.3,11.8,37.8,11.8,58.6C483.8,352.8,479.9,372.3,472,390.6z"/><path d="M333.5,275.1c-32,0-57.9,25.9-57.9,57.9c0,31.9,25.9,57.8,57.9,57.8c31.9,0,57.8-25.9,57.8-57.8C391.3,301.1,365.4,275.1,333.5,275.1z"/><path d="M980.9,746.6c2.2-0.9,4.5-2.6,6.6-5.4c2.1-2.7,2.9-6.5,2.4-11.4c-1.2-8.3-3.4-16.5-6.7-24.7c-3.3-8.2-7.1-14.2-11.4-18.2c-2.3-2.3-5.1-3.7-8.3-3.9c-3.3-0.3-6.1,0.2-8.3,1.8c-8.6,4-17.9,5.7-27.9,4.9c-10.1-0.7-18.4-4.5-25.3-11.4c-6.9-6.8-11.1-14.9-12.5-24.1c-1.4-9.1-0.2-17.8,3.4-26.1c0.6-1.2,1.2-3.1,1.7-5.8c0.6-2.7,0.2-5.2-1.3-7.5c-2.3-3.7-5.3-7.1-9.2-10.3c-3.8-3.1-8.1-5.7-12.6-7.7c-4.6-2-9.3-3.6-14-4.7c-4.7-1.1-9.1-1.7-13-1.7c-2.6,0-5.1,1.2-7.5,3.7c-2.5,2.4-4.3,4.8-5.4,7c-3.1,8.6-8.6,15.7-16.3,21.3c-7.7,5.6-16.6,8.4-26.5,8.4c-9.7,0-18.2-3-25.4-8.8c-7.2-5.8-12.3-12.7-15.4-20.4c-0.9-2.6-2.4-5.1-4.5-7.5c-2.1-2.4-5-3.7-8.8-3.7c-2.9,0-6.8,0.5-11.6,1.5c-4.8,1-9.8,2.4-15,4.5c-5.2,2-10,4.5-14.3,7.6c-4.5,2.9-7.5,6.5-9.3,10.5c-0.9,1.7-1.1,3.7-0.7,6c0.4,2.3,1,4.3,1.5,6c0.3,1.8,0.7,4.6,1.1,8.6c0.4,4.1,0.4,8.5,0,13.4c-0.4,4.8-1.4,9.8-3,14.8c-1.6,5-4.1,9.2-7.5,12.7c-7.1,6.8-15.4,11-24.7,12.3c-9.2,1.3-18.2,0.2-26.8-3.2c-2.6-0.9-5-1.5-7.1-1.8c-2.1-0.3-4.4,0.2-6.6,1.8c-2.9,1.7-5.5,4.3-8,7.9c-2.4,3.6-4.6,7.5-6.4,11.8c-1.9,4.3-3.3,8.8-4.5,13.4c-1.1,4.6-1.7,8.7-1.7,12.5c0,3.4,0.9,6.8,2.6,10.1c1.8,3.3,3.9,5.4,6.4,6.3c8.6,3.4,16.3,8.9,23.2,16.2c6.8,7.5,10.3,16.2,10.3,26.2c0,9.7-3.5,18.4-10.3,26.3c-6.9,7.9-14.6,13.5-23.2,17c-4.9,1.7-7.7,5.7-8.6,12c-0.6,3.5-0.3,7.8,0.9,13.1c1.1,5.3,2.8,10.4,4.9,15.5c2.1,5,4.6,9.6,7.3,13.7c2.7,4.2,5.7,6.8,8.8,7.9c4,1.8,8,2,12.1,0.9c6.2-2,12.4-3.2,18.4-3.5c5.1-0.2,10.6,0.2,16.3,1.5c5.7,1.3,10.6,4.1,14.6,8.4c6.6,7.1,10.3,14.9,11,23.4c0.7,8.4-0.5,15.9-3.7,22.5c-2.3,4.9-3.3,8.6-3.2,11.4c0.1,2.7,0.9,5.1,2.4,7.1c2,2.8,5.1,5.7,9,8.6c4,2.9,8.5,5.4,13.5,7.5c5,2.2,10.1,4,15.1,5.4c5,1.4,9.4,2.2,13.4,2.2c3.5,0,6.6-0.8,9.5-2.4c2.9-1.6,5-4.1,6.4-7.5c3.1-8.6,8.6-16.1,16.6-22.6c7.8-6.4,16.6-9.7,26.3-9.7c10.1,0,18.9,3.2,26.4,9.7c7.7,6.4,12.9,14,16.1,22.9h0.4c0.9,2.3,2.5,4.5,4.7,6.4c2.2,2,4.7,3.1,7.3,3.1c3.7,0,8-0.6,12.9-1.7c4.8-1.2,9.4-2.8,14-4.8c4.4-2,8.5-4.2,12.2-6.6c3.7-2.4,6.4-4.8,8.1-7.1c3.7-5.7,4.2-11.4,1.3-17.2c-3.7-8.3-5-17.1-3.9-26.1c1.1-9.2,5.1-17.3,12.1-24.4c3.1-3.5,6.9-5.9,11.4-7.4c4.4-1.4,8.9-2.4,13.4-2.8c4.4-0.4,8.8-0.3,13.1,0.4c4.2,0.8,7.9,1.5,10.7,2.4c3.1,1.1,6,1.8,8.6,1.8c2.6,0,5.6-0.9,9-2.6c3.4-1.8,6.5-4.6,9.4-8.6c2.9-4,5.3-8.5,7.3-13.5c2-5.1,3.5-9.9,4.3-14.8c0.9-4.8,1-9,0.4-12.5c-1.2-4-3.3-7.3-6.4-9.9c-1.4-1.1-3.1-2.3-5.2-3.4c-8.6-3.2-15.5-8.4-20.9-15.7c-5.2-7.3-7.9-15.8-7.9-25.5c0-10.1,3.2-19,9.4-26.9C964.3,755.2,971.9,749.8,980.9,746.6z M875.6,825.8c-4.8,11.3-11.5,21.2-20,29.8s-18.4,15.4-29.8,20.2c-11.4,4.9-23.6,7.3-36.5,7.3c-12.9,0-24.9-2.4-36.2-7.3c-11.3-4.8-21.2-11.6-29.6-20.2c-8.4-8.6-15.1-18.5-20-29.8c-4.8-11.3-7.3-23.4-7.3-36.3s2.4-24.9,7.3-36.3c4.9-11.3,11.6-21.1,20-29.6c8.4-8.4,18.3-15.1,29.6-20c11.3-4.9,23.4-7.3,36.2-7.3c12.9,0,25,2.4,36.5,7.3c11.4,4.9,21.4,11.6,29.8,20c8.4,8.5,15.1,18.3,20,29.6c4.9,11.4,7.3,23.4,7.3,36.3C882.9,802.4,880.5,814.5,875.6,825.8z"/><path d="M789.8,754.3c-19.7,0-35.8,16.1-35.8,35.9c0,19.7,16,35.8,35.8,35.8c19.8,0,35.8-16,35.8-35.8C825.7,770.4,809.6,754.3,789.8,754.3z"/></g>
</svg>